# xmcd
#
# Track frame offsets:
# 150
# 20760
# 39847
# 59247
# 76222
# 95390
# 112342
# 123865
# 149192
# 166487
# 185905
# 200175
# 203290
# 223137
# 242010
# 259647
# 278027
#
# Disc length: 3964 seconds
#
#
# Revision: 0
# Processed by: cddbd v1.5.2PL0 Copyright (c) Steve Scherf et al.
# Submitted via: FreeRIP 2.96 
#
DISCID=0a0f7a11
DTITLE=Boaventura - Blues E Sonhos no Rio dos Tuiuiús
DYEAR=2002
DGENRE=Blues
TTITLE0=Violeiro Companheiro
TTITLE1=Entre O Medo e o Poder
TTITLE2=Sinal(Com Big Gilson)
TTITLE3=Campos Da Paz(Com o Bando do Velho Jack)
TTITLE4=Carrossel
TTITLE5=Não Tenha Medo
TTITLE6=Tom Brasileiro
TTITLE7=Não Deixe Pra Depois
TTITLE8=É Mesmo o Blues?
TTITLE9=Subindo ao Céu
TTITLE10=O Som do Mississipi
TTITLE11=Overdose(Introdução)
TTITLE12=Overdose(Com Big Gilson)
TTITLE13=Fogueiras
TTITLE14=Cada Segundo
TTITLE15=Rio dos Tuiuiús
TTITLE16=Um Sentimento
EXTD=
EXTT0=
EXTT1=
EXTT2=
EXTT3=
EXTT4=
EXTT5=
EXTT6=
EXTT7=
EXTT8=
EXTT9=
EXTT10=
EXTT11=
EXTT12=
EXTT13=
EXTT14=
EXTT15=
EXTT16=
PLAYORDER=
